<svg width="512" height="512" xmlns="http://www.w3.org/2000/svg">
  <path fill="#FDFEFC" stroke="#FDFEFC" d="m245.5 136 29 1 14 3 14 5q27 11.5 44.5 32.5 14.9 16.6 23 40l5 21 1 26-5 27-10 23q-10.6 18.9-26.5 32.5-16.6 14.9-40 23l-21 5-26 1-27-5-23-10q-19.4-11.1-33.5-27.5-15.9-18.6-24-45l-4-22v-21l5-25 11-25q10.9-18.1 26.5-31.5 13.5-11.5 31-19l14-5zM207 200v112l114-55q2 1 1-2z"/>
  <path fill="#e00000" stroke="#e00000" opacity=".992" d="M233.5 0h44l1 1 16 1 29 6 32 11q56.1 24.4 93.5 67.5 34.9 39.1 53 95l6 24 2 18 1 1v9l1 1v43l-1 1v9l-1 1-2 18-4 17-9 27-11 24q-22.6 42.9-57.5 73.5-35.1 31.9-84 50l-27 8-28 5h-9l-1 1h-43l-1-1h-9l-1-1-12-1-30-7q-23.8-7.2-44-18-42.9-22.6-73.5-57.5-32-35-50-84l-8-27-5-28v-8l-1-1v-44l1-1v-9l1-1 2-18 6-24q8-26 20-48Q52.6 92.6 86.5 63q30.2-26.8 70-44l40-13 20-4 16-1zM246 136l-22 4-14 5q-18 7-31 19-16 13-27 32l-11 25-5 25v21l4 22q8 26 24 45 14 16 34 27l23 10 27 5 26-1 21-5q23-8 40-23 15-14 26-32l10-23 5-27-1-26-5-21q-8-24-23-40-17-22-44-33l-14-5-14-3z"/>
  <path fill="#e00000" stroke="#e00000" opacity=".992" d="m207 200 115 55q1.1 2.7-1.5 2L207 312z"/>
</svg>
