<svg xmlns="http://www.w3.org/2000/svg" width="425" height="277" viewBox="0 0 425 277" class="mdl-js"><rect width="100%" height="100%" fill="#DDDDDD"/><path fill="#999999" d="M116.575 111.395h7.12v43.38h-4.15q-.96 0-1.6-.32-.65-.31-1.25-1.06l-22.64-28.92q.17 1.98.17 3.66v26.64h-7.11v-43.38h4.23q.51 0 .89.04.37.05.66.18.28.14.55.39.28.26.61.68l22.73 29.04q-.09-1.05-.15-2.07-.06-1.02-.06-1.89v-26.37Zm29.22 12.12q3.42 0 6.23 1.11 2.8 1.11 4.8 3.15 1.99 2.04 3.07 4.98 1.08 2.94 1.08 6.57 0 3.66-1.08 6.6-1.08 2.94-3.07 5.01-2 2.07-4.8 3.18-2.81 1.11-6.23 1.11-3.45 0-6.27-1.11-2.82-1.11-4.81-3.18-2-2.07-3.09-5.01-1.1-2.94-1.1-6.6 0-3.63 1.1-6.57 1.09-2.94 3.09-4.98 1.99-2.04 4.81-3.15 2.82-1.11 6.27-1.11Zm0 26.01q3.84 0 5.69-2.58 1.84-2.58 1.84-7.56 0-4.98-1.84-7.59-1.85-2.61-5.69-2.61-3.9 0-5.77 2.63-1.88 2.62-1.88 7.57t1.88 7.55q1.87 2.59 5.77 2.59Zm44.7-38.13v43.38h-8.1v-43.38h8.1Zm15.93 43.38h-7.41v-30.78h4.53q1.44 0 1.89 1.35l.48 2.28q.81-.9 1.7-1.65.88-.75 1.89-1.29 1-.54 2.16-.86 1.15-.31 2.53-.31 2.91 0 4.79 1.58 1.87 1.57 2.8 4.18.72-1.53 1.8-2.63 1.08-1.09 2.37-1.78t2.75-1.02q1.45-.33 2.92-.33 2.55 0 4.53.78 1.98.78 3.33 2.28 1.35 1.5 2.06 3.66.7 2.16.7 4.95v19.59h-7.41v-19.59q0-2.94-1.29-4.43-1.29-1.48-3.78-1.48-1.14 0-2.11.39-.98.39-1.71 1.13-.74.73-1.16 1.84-.42 1.11-.42 2.55v19.59h-7.44v-19.59q0-3.09-1.24-4.5-1.25-1.41-3.65-1.41-1.62 0-3.01.8-1.4.79-2.6 2.17v22.53Zm59.1-7.95v-5.19q-3.21.15-5.4.56-2.19.4-3.51 1.03-1.32.63-1.89 1.47-.57.84-.57 1.83 0 1.95 1.16 2.79 1.15.84 3.01.84 2.28 0 3.95-.82 1.66-.83 3.25-2.51Zm-15.66-16.17-1.32-2.37q5.31-4.86 12.78-4.86 2.7 0 4.83.89 2.13.88 3.6 2.46 1.47 1.57 2.24 3.76.76 2.19.76 4.8v19.44h-3.36q-1.05 0-1.62-.32-.57-.31-.9-1.27l-.66-2.22q-1.17 1.05-2.28 1.85-1.11.79-2.31 1.33t-2.56.83q-1.37.28-3.02.28-1.95 0-3.6-.52-1.65-.53-2.85-1.58-1.2-1.05-1.86-2.61-.66-1.56-.66-3.63 0-1.17.39-2.33.39-1.15 1.28-2.2.88-1.05 2.29-1.98 1.41-.93 3.47-1.62 2.05-.69 4.78-1.12 2.73-.44 6.24-.53v-1.8q0-3.09-1.32-4.58-1.32-1.48-3.81-1.48-1.8 0-2.98.42-1.19.42-2.09.95l-1.63.94q-.74.42-1.64.42-.78 0-1.32-.41-.54-.4-.87-.94Zm41.1 7.98q1.38 0 2.4-.38 1.02-.37 1.7-1.03.67-.66 1.02-1.59.34-.93.34-2.04 0-2.28-1.36-3.61-1.37-1.34-4.1-1.34-2.73 0-4.09 1.34-1.37 1.33-1.37 3.61 0 1.08.35 2.01.34.93 1.02 1.61.67.67 1.71 1.04 1.03.38 2.38.38Zm8.37 17.52q0-.9-.54-1.47t-1.47-.88q-.93-.32-2.17-.47-1.25-.15-2.64-.23-1.4-.07-2.88-.13-1.49-.06-2.9-.24-1.23.69-1.99 1.62-.77.93-.77 2.16 0 .81.41 1.51.4.71 1.29 1.22.88.51 2.29.79 1.41.29 3.45.29 2.07 0 3.57-.32 1.5-.31 2.48-.86.97-.56 1.42-1.33.45-.76.45-1.66Zm-1.47-31.11h8.85v2.76q0 1.32-1.59 1.62l-2.76.51q.63 1.59.63 3.48 0 2.28-.91 4.13-.92 1.84-2.54 3.13-1.62 1.29-3.82 1.99-2.21.71-4.76.71-.9 0-1.74-.09t-1.65-.24q-1.44.87-1.44 1.95 0 .93.86 1.37.85.43 2.26.61 1.41.18 3.21.23 1.8.04 3.69.19t3.69.53q1.8.37 3.21 1.18 1.41.81 2.27 2.21.85 1.39.85 3.58 0 2.04-1 3.96-1.01 1.92-2.91 3.42-1.91 1.5-4.68 2.41-2.78.92-6.32.92-3.48 0-6.06-.68-2.58-.67-4.29-1.79-1.71-1.13-2.55-2.6-.84-1.47-.84-3.06 0-2.16 1.31-3.61 1.3-1.46 3.58-2.33-1.23-.63-1.95-1.68-.72-1.05-.72-2.76 0-.69.26-1.43.25-.73.75-1.45.49-.72 1.24-1.36.75-.65 1.77-1.16-2.34-1.26-3.67-3.36-1.34-2.1-1.34-4.92 0-2.28.92-4.12.91-1.85 2.55-3.15 1.63-1.31 3.87-2 2.23-.69 4.87-.69 1.98 0 3.72.41 1.74.4 3.18 1.18Zm19.38 10.8h13.98q0-1.44-.4-2.71-.41-1.28-1.22-2.24-.81-.96-2.05-1.51-1.25-.56-2.9-.56-3.21 0-5.05 1.83-1.85 1.83-2.36 5.19Zm18.9 4.47h-19.05q.18 2.37.84 4.09.66 1.73 1.74 2.86 1.08 1.12 2.57 1.68 1.48.55 3.28.55 1.8 0 3.11-.42 1.3-.42 2.28-.93.97-.51 1.71-.93.73-.42 1.42-.42.93 0 1.38.69l2.13 2.7q-1.23 1.44-2.76 2.42-1.53.97-3.19 1.56-1.67.58-3.39.82-1.73.24-3.35.24-3.21 0-5.97-1.06-2.76-1.07-4.8-3.15-2.04-2.09-3.21-5.16-1.17-3.08-1.17-7.13 0-3.15 1.02-5.92 1.02-2.78 2.93-4.83 1.9-2.06 4.65-3.26 2.74-1.2 6.19-1.2 2.91 0 5.37.93t4.23 2.72q1.77 1.78 2.78 4.38 1 2.59 1 5.92 0 1.68-.36 2.27-.36.58-1.38.58Z"/></svg>